<mxfile host="app.diagrams.net" modified="2021-09-28T18:26:14.810Z" agent="5.0 (Windows NT 10.0; Win64; x64) AppleWebKit/537.36 (KHTML, like Gecko) Chrome/94.0.4606.61 Safari/537.36" etag="MdxUHYipIUIHlxATIfLW" version="15.3.7" type="github">
  <diagram id="5w8WeW0E0EGXetPe3Mmg" name="Page-1">
    <mxGraphModel dx="2054" dy="561" grid="1" gridSize="10" guides="1" tooltips="1" connect="1" arrows="1" fold="1" page="1" pageScale="1" pageWidth="827" pageHeight="1169" math="0" shadow="0">
      <root>
        <mxCell id="0" />
        <mxCell id="1" parent="0" />
        <mxCell id="hs472DTzqqM4UGg1ShII-58" value="&lt;font style=&quot;font-size: 15px&quot;&gt;Topic&lt;br&gt;markets&lt;/font&gt;" style="rounded=1;whiteSpace=wrap;html=1;shadow=1;fillColor=#dae8fc;strokeColor=#6c8ebf;" vertex="1" parent="1">
          <mxGeometry x="380" y="320" width="120" height="60" as="geometry" />
        </mxCell>
        <mxCell id="hs472DTzqqM4UGg1ShII-59" value="&lt;font style=&quot;font-size: 15px&quot;&gt;markets&lt;br&gt;P1&lt;/font&gt;" style="rounded=1;whiteSpace=wrap;html=1;shadow=1;fillColor=#ffe6cc;strokeColor=#d79b00;" vertex="1" parent="1">
          <mxGeometry x="294" y="490" width="120" height="60" as="geometry" />
        </mxCell>
        <mxCell id="hs472DTzqqM4UGg1ShII-60" value="&lt;font style=&quot;font-size: 15px&quot;&gt;markets&lt;br&gt;P0&lt;/font&gt;" style="rounded=1;whiteSpace=wrap;html=1;shadow=1;fillColor=#ffe6cc;strokeColor=#d79b00;" vertex="1" parent="1">
          <mxGeometry x="110" y="490" width="120" height="60" as="geometry" />
        </mxCell>
        <mxCell id="hs472DTzqqM4UGg1ShII-61" value="&lt;font style=&quot;font-size: 15px&quot;&gt;markets&lt;br&gt;P2&lt;/font&gt;" style="rounded=1;whiteSpace=wrap;html=1;shadow=1;fillColor=#ffe6cc;strokeColor=#d79b00;" vertex="1" parent="1">
          <mxGeometry x="480" y="490" width="120" height="60" as="geometry" />
        </mxCell>
        <mxCell id="hs472DTzqqM4UGg1ShII-62" value="&lt;font style=&quot;font-size: 15px&quot;&gt;markets&lt;br&gt;P3&lt;/font&gt;" style="rounded=1;whiteSpace=wrap;html=1;shadow=1;fillColor=#ffe6cc;strokeColor=#d79b00;" vertex="1" parent="1">
          <mxGeometry x="650" y="490" width="120" height="60" as="geometry" />
        </mxCell>
        <mxCell id="hs472DTzqqM4UGg1ShII-63" value="" style="endArrow=none;html=1;entryX=0.5;entryY=1;entryDx=0;entryDy=0;" edge="1" parent="1" target="hs472DTzqqM4UGg1ShII-58">
          <mxGeometry width="50" height="50" relative="1" as="geometry">
            <mxPoint x="440" y="430" as="sourcePoint" />
            <mxPoint x="480" y="400" as="targetPoint" />
          </mxGeometry>
        </mxCell>
        <mxCell id="hs472DTzqqM4UGg1ShII-64" value="" style="endArrow=none;html=1;" edge="1" parent="1">
          <mxGeometry width="50" height="50" relative="1" as="geometry">
            <mxPoint x="160" y="430" as="sourcePoint" />
            <mxPoint x="710" y="430" as="targetPoint" />
            <Array as="points" />
          </mxGeometry>
        </mxCell>
        <mxCell id="hs472DTzqqM4UGg1ShII-65" value="" style="endArrow=none;html=1;exitX=0.417;exitY=0;exitDx=0;exitDy=0;exitPerimeter=0;" edge="1" parent="1" source="hs472DTzqqM4UGg1ShII-60">
          <mxGeometry width="50" height="50" relative="1" as="geometry">
            <mxPoint x="160" y="470" as="sourcePoint" />
            <mxPoint x="160" y="430" as="targetPoint" />
          </mxGeometry>
        </mxCell>
        <mxCell id="hs472DTzqqM4UGg1ShII-67" value="" style="endArrow=none;html=1;exitX=0.417;exitY=0;exitDx=0;exitDy=0;exitPerimeter=0;" edge="1" parent="1">
          <mxGeometry width="50" height="50" relative="1" as="geometry">
            <mxPoint x="709.4499999999999" y="490" as="sourcePoint" />
            <mxPoint x="709.41" y="429.9999999999999" as="targetPoint" />
          </mxGeometry>
        </mxCell>
        <mxCell id="hs472DTzqqM4UGg1ShII-68" value="" style="endArrow=none;html=1;exitX=0.417;exitY=0;exitDx=0;exitDy=0;exitPerimeter=0;" edge="1" parent="1">
          <mxGeometry width="50" height="50" relative="1" as="geometry">
            <mxPoint x="539.45" y="490" as="sourcePoint" />
            <mxPoint x="539.4100000000001" y="429.9999999999999" as="targetPoint" />
          </mxGeometry>
        </mxCell>
        <mxCell id="hs472DTzqqM4UGg1ShII-69" value="" style="endArrow=none;html=1;exitX=0.417;exitY=0;exitDx=0;exitDy=0;exitPerimeter=0;" edge="1" parent="1">
          <mxGeometry width="50" height="50" relative="1" as="geometry">
            <mxPoint x="353.44999999999993" y="490" as="sourcePoint" />
            <mxPoint x="353.40999999999997" y="429.9999999999999" as="targetPoint" />
          </mxGeometry>
        </mxCell>
        <mxCell id="hs472DTzqqM4UGg1ShII-74" value="&lt;font style=&quot;font-size: 15px&quot;&gt;markets 0-1&lt;/font&gt;" style="rounded=0;whiteSpace=wrap;html=1;shadow=1;" vertex="1" parent="1">
          <mxGeometry x="100" y="650" width="70" height="110" as="geometry" />
        </mxCell>
        <mxCell id="hs472DTzqqM4UGg1ShII-75" value="&lt;font style=&quot;font-size: 15px&quot;&gt;markets 0-2&lt;/font&gt;" style="rounded=0;whiteSpace=wrap;html=1;shadow=1;" vertex="1" parent="1">
          <mxGeometry x="180" y="650" width="70" height="110" as="geometry" />
        </mxCell>
        <mxCell id="hs472DTzqqM4UGg1ShII-76" value="&lt;font style=&quot;font-size: 15px&quot;&gt;markets 1-1&lt;/font&gt;" style="rounded=0;whiteSpace=wrap;html=1;shadow=1;" vertex="1" parent="1">
          <mxGeometry x="280" y="650" width="70" height="110" as="geometry" />
        </mxCell>
        <mxCell id="hs472DTzqqM4UGg1ShII-77" value="&lt;font style=&quot;font-size: 15px&quot;&gt;markets 1-2&lt;/font&gt;" style="rounded=0;whiteSpace=wrap;html=1;shadow=1;" vertex="1" parent="1">
          <mxGeometry x="360" y="650" width="70" height="110" as="geometry" />
        </mxCell>
        <mxCell id="hs472DTzqqM4UGg1ShII-78" value="&lt;font style=&quot;font-size: 15px&quot;&gt;markets 2-1&lt;/font&gt;" style="rounded=0;whiteSpace=wrap;html=1;shadow=1;" vertex="1" parent="1">
          <mxGeometry x="480" y="650" width="70" height="110" as="geometry" />
        </mxCell>
        <mxCell id="hs472DTzqqM4UGg1ShII-79" value="&lt;font style=&quot;font-size: 15px&quot;&gt;markets 2-2&lt;/font&gt;" style="rounded=0;whiteSpace=wrap;html=1;shadow=1;" vertex="1" parent="1">
          <mxGeometry x="560" y="650" width="70" height="110" as="geometry" />
        </mxCell>
        <mxCell id="hs472DTzqqM4UGg1ShII-80" value="&lt;font style=&quot;font-size: 15px&quot;&gt;markets 3-1&lt;/font&gt;" style="rounded=0;whiteSpace=wrap;html=1;shadow=1;" vertex="1" parent="1">
          <mxGeometry x="650" y="650" width="70" height="110" as="geometry" />
        </mxCell>
        <mxCell id="hs472DTzqqM4UGg1ShII-81" value="&lt;font style=&quot;font-size: 15px&quot;&gt;markets 3-2&lt;/font&gt;" style="rounded=0;whiteSpace=wrap;html=1;shadow=1;" vertex="1" parent="1">
          <mxGeometry x="730" y="650" width="70" height="110" as="geometry" />
        </mxCell>
        <mxCell id="hs472DTzqqM4UGg1ShII-82" value="&lt;font style=&quot;font-size: 16px&quot;&gt;&lt;b&gt;Leader Partitions&lt;/b&gt;&lt;/font&gt;" style="text;html=1;align=center;verticalAlign=middle;resizable=0;points=[];autosize=1;strokeColor=none;fillColor=none;" vertex="1" parent="1">
          <mxGeometry x="-40" y="500" width="150" height="20" as="geometry" />
        </mxCell>
        <mxCell id="hs472DTzqqM4UGg1ShII-83" value="&lt;font style=&quot;font-size: 15px&quot;&gt;Follower partitions&lt;/font&gt;" style="text;html=1;align=center;verticalAlign=middle;resizable=0;points=[];autosize=1;strokeColor=none;fillColor=none;strokeWidth=7;" vertex="1" parent="1">
          <mxGeometry x="-50" y="680" width="140" height="20" as="geometry" />
        </mxCell>
        <mxCell id="hs472DTzqqM4UGg1ShII-84" value="&lt;font style=&quot;font-size: 15px&quot;&gt;(Physical directories)&lt;/font&gt;" style="text;html=1;align=center;verticalAlign=middle;resizable=0;points=[];autosize=1;strokeColor=none;fillColor=none;strokeWidth=7;" vertex="1" parent="1">
          <mxGeometry x="-55" y="710" width="150" height="20" as="geometry" />
        </mxCell>
        <mxCell id="hs472DTzqqM4UGg1ShII-85" value="&lt;span style=&quot;color: rgb(0 , 0 , 0) ; font-family: &amp;#34;helvetica&amp;#34; ; font-size: 15px ; font-style: normal ; font-weight: 400 ; letter-spacing: normal ; text-align: center ; text-indent: 0px ; text-transform: none ; word-spacing: 0px ; background-color: rgb(248 , 249 , 250) ; display: inline ; float: none&quot;&gt;(Physical directories)&lt;/span&gt;" style="text;whiteSpace=wrap;html=1;" vertex="1" parent="1">
          <mxGeometry x="-40" y="520" width="150" height="30" as="geometry" />
        </mxCell>
      </root>
    </mxGraphModel>
  </diagram>
</mxfile>
